<?xml version="1.0" encoding="iso-8859-1"?>
<!-- Generator: Adobe Illustrator 19.0.0, SVG Export Plug-In . SVG Version: 6.00 Build 0)  -->
<svg version="1.1" id="Capa_1" xmlns="http://www.w3.org/2000/svg" xmlns:xlink="http://www.w3.org/1999/xlink" x="0px" y="0px"
	 viewBox="0 0 512 512" style="enable-background:new 0 0 512 512;" xml:space="preserve">
<g>
	<g>
		<g>
			<path d="M164.571,466.286h18.286v-9.143c0-5.049,4.093-9.143,9.143-9.143s9.143,4.093,9.143,9.143v9.143h18.286v-9.143
				c0-5.049,4.093-9.143,9.143-9.143c5.049,0,9.143,4.093,9.143,9.143v9.143H256v-9.143c0-5.049,4.093-9.143,9.143-9.143
				c5.049,0,9.143,4.093,9.143,9.143v9.143h18.286v-9.143c0-5.049,4.093-9.143,9.143-9.143s9.143,4.093,9.143,9.143v9.143h18.286
				v-9.143c0-5.049,4.093-9.143,9.143-9.143c5.049,0,9.143,4.093,9.143,9.143v9.143h18.286v-9.143c0-5.049,4.093-9.143,9.143-9.143
				c5.049,0,9.143,4.093,9.143,9.143v9.143h18.286v-9.143c0-5.049,4.093-9.143,9.143-9.143s9.143,4.093,9.143,9.143v9.143h18.286
				v-9.143c0-5.049,4.093-9.143,9.143-9.143c5.049,0,9.143,4.093,9.143,9.143v9.143h18.299l-0.013-36.571H164.571V466.286z"/>
			<polygon points="146.286,9.152 146.286,9.143 146.286,9.134 146.286,0 128,0 128,45.714 146.295,45.714 			"/>
			<polygon points="219.438,9.179 219.429,9.143 219.438,9.106 219.429,0 201.143,0 201.143,27.429 219.438,27.429 			"/>
			<path d="M201.143,135.458V192h18.286v-56.542c-3.376-1.199-6.482-3.05-9.143-5.449
				C207.625,132.408,204.518,134.259,201.143,135.458z"/>
			<rect x="109.714" y="347.429" width="18.286" height="18.286"/>
			<circle cx="228.571" cy="109.714" r="9.143"/>
			<circle cx="192" cy="109.714" r="9.143"/>
			<circle cx="45.714" cy="356.571" r="9.143"/>
			<rect x="109.714" y="128" width="18.286" height="164.571"/>
			<rect x="73.143" y="429.714" width="36.571" height="36.571"/>
			<path d="M475.429,292.571v-45.714H310.857v128h164.571v-45.714c0-5.049,4.093-9.143,9.143-9.143H512v-18.286h-27.429
				C479.522,301.714,475.429,297.621,475.429,292.571z M331.794,267.794c2.616-2.637,6.567-3.43,9.997-2.006
				c3.431,1.424,5.658,4.783,5.637,8.497c-0.017,0.612-0.078,1.223-0.183,1.826c-0.102,0.573-0.287,1.128-0.549,1.647
				c-0.201,0.583-0.479,1.137-0.826,1.647c-0.337,0.479-0.702,0.936-1.094,1.371c-3.605,3.536-9.377,3.536-12.982,0
				c-0.366-0.46-0.732-0.915-1.098-1.371c-0.347-0.51-0.625-1.064-0.826-1.647c-0.263-0.519-0.447-1.074-0.545-1.647
				c-0.107-0.603-0.169-1.214-0.183-1.826C329.177,271.865,330.124,269.546,331.794,267.794z M344.777,353.92
				c-0.46,0.366-0.915,0.732-1.37,1.094c-0.51,0.347-1.064,0.625-1.647,0.826c-0.519,0.262-1.074,0.448-1.647,0.549
				c-0.604,0.105-1.214,0.166-1.826,0.183c-1.196-0.014-2.378-0.263-3.478-0.732c-1.106-0.465-2.125-1.115-3.013-1.92
				c-3.536-3.605-3.536-9.377,0-12.982c0.888-0.808,1.907-1.459,3.013-1.924c1.669-0.727,3.522-0.918,5.304-0.545
				c0.573,0.098,1.129,0.282,1.647,0.545c0.583,0.201,1.137,0.479,1.647,0.826c0.455,0.366,0.911,0.732,1.371,1.098
				C348.313,344.542,348.313,350.314,344.777,353.92L344.777,353.92z M356.571,320h-18.286c-5.049,0-9.143-4.093-9.143-9.143
				c0-5.049,4.093-9.143,9.143-9.143h18.286c5.049,0,9.143,4.093,9.143,9.143C365.714,315.907,361.621,320,356.571,320z
				 M402.286,329.143c0,5.049-4.093,9.143-9.143,9.143S384,334.192,384,329.143v-36.571c0-5.049,4.093-9.143,9.143-9.143
				s9.143,4.093,9.143,9.143V329.143z M454.491,353.92c-0.46,0.366-0.915,0.732-1.371,1.094c-0.51,0.347-1.064,0.625-1.647,0.826
				c-0.545,0.276-1.132,0.461-1.737,0.549c-0.573,0.105-1.154,0.166-1.737,0.183c-3.697-0.015-7.024-2.245-8.442-5.66
				s-0.649-7.346,1.951-9.975c2.189-2.093,5.248-3.011,8.228-2.469c0.605,0.084,1.192,0.268,1.737,0.545
				c0.583,0.201,1.137,0.479,1.647,0.826c0.455,0.366,0.911,0.732,1.371,1.098C458.026,344.542,458.026,350.314,454.491,353.92
				L454.491,353.92z M448,320h-18.286c-5.049,0-9.143-4.093-9.143-9.143c0-5.049,4.093-9.143,9.143-9.143H448
				c5.049,0,9.143,4.093,9.143,9.143C457.143,315.907,453.049,320,448,320z M456.96,276.112c-0.102,0.573-0.287,1.128-0.549,1.647
				c-0.201,0.583-0.479,1.137-0.826,1.647c-0.337,0.479-0.702,0.936-1.094,1.371c-1.754,1.668-4.071,2.615-6.491,2.651
				c-1.196-0.014-2.378-0.263-3.478-0.732c-1.106-0.465-2.125-1.115-3.013-1.92c-0.366-0.46-0.732-0.915-1.098-1.371
				c-0.347-0.51-0.625-1.064-0.826-1.647c-0.263-0.519-0.447-1.074-0.545-1.647c-0.107-0.603-0.169-1.213-0.183-1.826
				c0.034-2.421,0.981-4.739,2.651-6.491c0.888-0.808,1.907-1.459,3.013-1.924c3.411-1.388,7.32-0.633,9.969,1.924
				c1.669,1.753,2.616,4.071,2.651,6.491C457.126,274.898,457.065,275.508,456.96,276.112z"/>
			<path d="M256,246.857h-73.143v128h73.156L256,246.857z M212.937,267.794c2.188-2.158,5.307-3.084,8.317-2.469
				c0.573,0.098,1.129,0.282,1.647,0.545c0.583,0.201,1.137,0.479,1.647,0.826c0.479,0.338,0.937,0.705,1.371,1.098
				c1.669,1.753,2.616,4.071,2.651,6.491c-0.017,0.612-0.078,1.223-0.183,1.826v0c-0.102,0.573-0.287,1.128-0.549,1.647
				c-0.201,0.583-0.479,1.137-0.826,1.647c-0.362,0.455-0.728,0.911-1.094,1.371c-0.46,0.366-0.915,0.732-1.37,1.094
				c-0.51,0.347-1.064,0.625-1.647,0.826c-0.519,0.263-1.074,0.448-1.647,0.549c-0.604,0.105-1.214,0.166-1.826,0.183
				c-2.42-0.036-4.738-0.983-6.491-2.651c-0.366-0.46-0.732-0.915-1.098-1.371c-0.347-0.51-0.625-1.064-0.826-1.647
				c-0.263-0.519-0.447-1.074-0.545-1.647c-0.107-0.603-0.168-1.214-0.183-1.826C210.319,271.865,211.266,269.546,212.937,267.794z
				 M211.013,307.379c0.84-2.292,2.645-4.098,4.937-4.937c1.669-0.727,3.522-0.918,5.304-0.545c0.573,0.098,1.129,0.282,1.647,0.545
				c0.583,0.201,1.137,0.479,1.647,0.826c0.455,0.366,0.911,0.732,1.371,1.098c0.805,0.889,1.455,1.908,1.92,3.013
				c0.469,1.1,0.718,2.281,0.732,3.477c-0.017,0.612-0.078,1.222-0.183,1.826v0c-0.102,0.573-0.287,1.128-0.549,1.647
				c-0.201,0.583-0.479,1.137-0.826,1.647c-0.362,0.455-0.728,0.911-1.094,1.37c-0.46,0.366-0.915,0.732-1.37,1.094
				c-0.51,0.347-1.064,0.625-1.647,0.826c-0.519,0.262-1.074,0.448-1.647,0.549c-0.604,0.105-1.214,0.166-1.826,0.183
				c-1.196-0.014-2.378-0.263-3.478-0.732c-1.106-0.465-2.125-1.115-3.013-1.92c-0.366-0.46-0.732-0.915-1.098-1.37
				c-0.347-0.51-0.625-1.064-0.826-1.647c-0.263-0.519-0.447-1.074-0.545-1.647c-0.107-0.603-0.168-1.213-0.183-1.826
				C210.298,309.661,210.546,308.48,211.013,307.379z M225.92,353.92c-0.46,0.366-0.915,0.732-1.37,1.094
				c-0.51,0.347-1.064,0.625-1.647,0.826c-0.519,0.262-1.074,0.448-1.647,0.549c-0.604,0.105-1.214,0.166-1.826,0.183
				c-1.196-0.014-2.378-0.263-3.478-0.732c-1.106-0.465-2.125-1.115-3.013-1.92c-3.536-3.605-3.536-9.377,0-12.982
				c0.888-0.808,1.907-1.459,3.013-1.924c1.669-0.727,3.522-0.918,5.304-0.545c0.573,0.098,1.129,0.282,1.647,0.545
				c0.583,0.201,1.137,0.479,1.647,0.826c0.455,0.366,0.911,0.732,1.371,1.098C229.455,344.542,229.455,350.314,225.92,353.92
				L225.92,353.92z"/>
			<polygon points="475.438,9.179 475.429,9.143 475.438,9.106 475.429,0 457.143,0 457.143,27.429 475.438,27.429 			"/>
			<path d="M457.143,137.143h-91.429v19.97c3.376,1.199,6.482,3.05,9.143,5.449c10.335-9.512,26.236-9.512,36.571,0
				c10.335-9.512,26.236-9.512,36.571,0c2.661-2.399,5.767-4.25,9.143-5.449V137.143z"/>
			<circle cx="466.286" cy="182.857" r="9.143"/>
			<circle cx="429.714" cy="182.857" r="9.143"/>
			<path d="M493.714,18.286v9.143c-0.01,10.095-8.191,18.276-18.286,18.286h-18.286c-10.095-0.01-18.276-8.191-18.286-18.286v-9.143
				h-18.286v27.429C420.561,55.809,412.38,63.99,402.286,64h-128C264.191,63.99,256.01,55.809,256,45.714V18.286h-18.286v9.143
				c-0.01,10.095-8.191,18.276-18.286,18.286h-18.286c-10.095-0.01-18.276-8.191-18.286-18.286v-9.143h-18.286v27.429
				C164.561,55.809,156.38,63.99,146.286,64v18.286c0,5.049-4.093,9.143-9.143,9.143c-5.049,0-9.143-4.093-9.143-9.143V64
				c-10.095-0.01-18.276-8.191-18.286-18.286V18.286H0V512h512V338.286h-18.286v36.571c-0.01,10.095-8.191,18.276-18.286,18.286
				H310.857c-10.095-0.01-18.276-8.191-18.286-18.286v-128c0.01-10.095,8.191-18.276,18.286-18.286h164.571
				c10.095,0.01,18.276,8.191,18.286,18.286v36.571H512V18.286H493.714z M109.714,109.714H128
				c10.095,0.01,18.276,8.191,18.286,18.286v164.571c-0.01,10.095-8.191,18.276-18.286,18.286h-18.286
				c-10.095-0.01-18.276-8.191-18.286-18.286V128C91.439,117.905,99.62,109.724,109.714,109.714z M75.794,39.223
				c2.616-2.637,6.567-3.43,9.997-2.006S91.45,42,91.429,45.714c-0.024,4.127-2.81,7.726-6.798,8.784
				c-3.989,1.058-8.192-0.687-10.258-4.259C72.305,46.667,72.888,42.153,75.794,39.223z M20.937,39.223
				c3.666-3.384,9.317-3.384,12.983,0c2.637,2.616,3.43,6.567,2.006,9.998s-4.783,5.658-8.497,5.637
				c-3.697-0.015-7.024-2.245-8.442-5.66C17.569,45.783,18.338,41.852,20.937,39.223z M18.286,128
				c0.01-10.095,8.191-18.276,18.286-18.286h18.286c10.095,0.01,18.276,8.191,18.286,18.286v164.571
				c-0.01,10.095-8.191,18.276-18.286,18.286H36.571c-10.095-0.01-18.276-8.191-18.286-18.286V128z M35.839,488.045
				c-0.465,1.107-1.114,2.127-1.92,3.018c-3.605,3.536-9.377,3.536-12.982,0c-3.536-3.605-3.536-9.377,0-12.982
				c0.857-0.847,1.884-1.503,3.013-1.924c2.227-0.911,4.723-0.911,6.951,0c1.119,0.443,2.144,1.096,3.019,1.924
				c1.669,1.753,2.616,4.071,2.651,6.491C36.557,485.766,36.308,486.946,35.839,488.045z M18.286,356.571
				c0-15.148,12.28-27.429,27.429-27.429s27.429,12.28,27.429,27.429c0,15.148-12.28,27.429-27.429,27.429
				C30.573,383.983,18.302,371.713,18.286,356.571z M128,466.286c-0.01,10.095-8.191,18.276-18.286,18.286H73.143
				c-10.095-0.01-18.276-8.191-18.286-18.286v-36.571c0.01-10.095,8.191-18.276,18.286-18.286h36.571
				c10.095,0.01,18.276,8.191,18.286,18.286V466.286z M128,384h-18.286c-10.095-0.01-18.276-8.191-18.286-18.286v-18.286
				c0.01-10.095,8.191-18.276,18.286-18.286H128c10.095,0.01,18.276,8.191,18.286,18.286v18.286
				C146.276,375.809,138.095,383.99,128,384z M475.429,411.429c10.095,0.01,18.276,8.191,18.286,18.286v36.571
				c-0.01,10.095-8.191,18.276-18.286,18.286H164.571c-10.095-0.01-18.276-8.191-18.286-18.286v-36.571
				c0.01-10.095,8.191-18.276,18.286-18.286H475.429z M164.571,374.857v-128c0.01-10.095,8.191-18.276,18.286-18.286H256
				c10.095,0.01,18.276,8.191,18.286,18.286v128c-0.01,10.095-8.191,18.276-18.286,18.286h-73.143
				C172.762,393.133,164.582,384.952,164.571,374.857z M329.105,111.107c-0.586,11.065-7.792,20.682-18.248,24.351V192
				c-0.01,10.095-8.191,18.276-18.286,18.286h-91.429c-10.095-0.01-18.276-8.191-18.286-18.286v-56.542
				c-10.478-3.655-17.709-13.279-18.302-24.36c-0.594-11.081,5.568-21.423,15.595-26.176c10.027-4.753,21.933-2.976,30.136,4.498
				c10.335-9.512,26.236-9.512,36.571,0c10.335-9.512,26.236-9.512,36.571,0c8.204-7.448,20.092-9.207,30.102-4.454
				C323.54,89.718,329.691,100.042,329.105,111.107z M493.319,187.562c-2.262,13.154-13.685,22.757-27.033,22.724
				c-6.77-0.021-13.29-2.565-18.286-7.134c-10.335,9.512-26.236,9.512-36.571,0c-10.335,9.512-26.236,9.512-36.571,0
				c-8.204,7.448-20.092,9.207-30.102,4.454c-10.009-4.753-16.16-15.077-15.575-26.142c0.586-11.065,7.792-20.682,18.248-24.351V128
				c0-5.049,4.093-9.143,9.143-9.143h109.714c5.049,0,9.143,4.093,9.143,9.143v29.113
				C488.021,161.54,495.581,174.407,493.319,187.562z"/>
			<circle cx="393.143" cy="182.857" r="9.143"/>
			<rect x="36.571" y="128" width="18.286" height="164.571"/>
			<path d="M237.714,135.458V192H256v-56.542c-3.376-1.199-6.482-3.05-9.143-5.449C244.197,132.408,241.09,134.259,237.714,135.458z
				"/>
			<circle cx="265.143" cy="109.714" r="9.143"/>
			<path d="M274.286,135.458V192h18.286v-56.542c-3.376-1.199-6.482-3.05-9.143-5.449
				C280.768,132.408,277.661,134.259,274.286,135.458z"/>
			<circle cx="301.714" cy="109.714" r="9.143"/>
			<polygon points="402.286,9.152 402.286,9.143 402.286,9.134 402.286,0 274.286,0 274.286,45.714 402.295,45.714 			"/>
			<circle cx="356.571" cy="182.857" r="9.143"/>
		</g>
	</g>
</g>
<g>
</g>
<g>
</g>
<g>
</g>
<g>
</g>
<g>
</g>
<g>
</g>
<g>
</g>
<g>
</g>
<g>
</g>
<g>
</g>
<g>
</g>
<g>
</g>
<g>
</g>
<g>
</g>
<g>
</g>
</svg>
