<?xml version="1.0" encoding="iso-8859-1"?>
<!-- Generator: Adobe Illustrator 19.0.0, SVG Export Plug-In . SVG Version: 6.00 Build 0)  -->
<svg version="1.1" id="Capa_1" xmlns="http://www.w3.org/2000/svg" xmlns:xlink="http://www.w3.org/1999/xlink" x="0px" y="0px"
	 viewBox="0 0 504.249 504.249" style="enable-background:new 0 0 504.249 504.249;" xml:space="preserve">
<g>
	<g>
		<g>
			<path d="M258.598,181.033l51.719,51.723l19.397-19.397l-6.464-6.464c-2.309-2.309-3.211-5.676-2.366-8.83
				c0.845-3.155,3.31-5.619,6.464-6.464s6.521,0.057,8.83,2.366l6.464,6.464l12.932-12.932l-6.468-6.465
				c-2.309-2.309-3.211-5.676-2.366-8.83c0.845-3.155,3.31-5.619,6.464-6.464s6.521,0.057,8.83,2.366l6.468,6.465l12.93-12.93
				l-6.464-6.464c-2.309-2.309-3.211-5.676-2.366-8.83c0.845-3.155,3.31-5.619,6.464-6.464s6.521,0.057,8.83,2.366l6.464,6.464
				l12.933-12.933l0.005-0.004l0.004-0.009l-51.727-51.705L258.598,181.033z M336.178,155.175l-25.862,25.857
				c-2.31,2.31-5.676,3.211-8.83,2.366c-3.155-0.845-5.619-3.309-6.464-6.464s0.057-6.521,2.366-8.83l25.862-25.857
				c3.57-3.57,9.358-3.57,12.929,0S339.748,151.605,336.178,155.175z M362.031,116.377c0.852,0.836,1.535,1.829,2.009,2.924
				c0.435,1.138,0.653,2.348,0.643,3.567c0.007,2.429-0.946,4.762-2.651,6.491c-1.753,1.669-4.071,2.616-6.491,2.651
				c-3.711,0.011-7.057-2.228-8.463-5.662c-1.406-3.434-0.591-7.377,2.062-9.972c2.622-2.607,6.562-3.366,9.965-1.92h0
				C360.194,114.9,361.189,115.552,362.031,116.377z"/>
			
				<rect x="199.394" y="241.669" transform="matrix(-0.7071 -0.7071 0.7071 -0.7071 222.2354 602.8195)" width="73.143" height="27.429"/>
			
				<rect x="141.218" y="299.873" transform="matrix(-0.7071 -0.7071 0.7071 -0.7071 81.7663 661.0439)" width="73.143" height="27.429"/>
			
				<rect x="146.045" y="482.161" transform="matrix(-0.7071 -0.7071 0.7071 -0.7071 -82.4818 948.4429)" width="18.286" height="18.286"/>
			
				<rect x="314.104" y="112.978" transform="matrix(-0.707 -0.7072 0.7072 -0.707 323.1943 780.4171)" width="18.286" height="420.573"/>
			
				<rect x="482.176" y="146.016" transform="matrix(0.7071 -0.7071 0.7071 0.7071 34.1898 392.8586)" width="18.286" height="18.286"/>
			<path d="M470.835,121.743c-10.49,5.008-22.997,2.861-31.216-5.359c-8.219-8.22-10.365-20.728-5.355-31.217l-15.147-15.147
				c-10.489,5.009-22.997,2.864-31.217-5.355c-8.22-8.219-10.367-20.726-5.359-31.216L349.107,0.015L0,349.122l33.433,33.433
				c10.49-5.008,22.997-2.861,31.216,5.359c8.219,8.22,10.365,20.728,5.355,31.217l15.147,15.147
				c10.489-5.009,22.997-2.864,31.217,5.355c8.22,8.219,10.367,20.726,5.359,31.216l7.574,7.574l349.107-349.107L470.835,121.743z
				 M47.241,352.626c-0.443,1.115-1.131,2.116-2.013,2.929c-1.673,1.742-3.982,2.731-6.397,2.741
				c-2.443-0.009-4.781-0.996-6.491-2.741c-1.717-1.685-2.674-3.996-2.651-6.402c-0.024-2.432,0.931-4.772,2.651-6.491
				c1.689-1.747,4.014-2.733,6.444-2.733c2.43,0,4.755,0.987,6.444,2.733c0.883,0.81,1.571,1.81,2.013,2.924
				c0.461,1.134,0.709,2.343,0.732,3.567C47.958,350.347,47.71,351.528,47.241,352.626z M342.647,32.354
				c3.613-3.431,9.28-3.431,12.893,0c1.745,1.71,2.732,4.048,2.741,6.491c-0.123,4.998-4.145,9.02-9.143,9.143
				c-2.444-0.008-4.783-0.997-6.491-2.746c-1.717-1.683-2.675-3.993-2.651-6.397C339.971,36.414,340.927,34.074,342.647,32.354z
				 M168.089,400.84L168.089,400.84l-19.398,19.398c-3.428,3.43-8.079,5.357-12.929,5.357c-4.85,0-9.5-1.927-12.929-5.357
				l-51.718-51.719c-7.129-7.146-7.129-18.715,0-25.862l19.393-19.393c7.143-7.138,18.719-7.138,25.862,0l51.719,51.719
				c3.43,3.428,5.357,8.079,5.357,12.929C173.446,392.761,171.519,397.412,168.089,400.84z M226.272,342.658l-19.393,19.393
				c-7.146,7.131-18.716,7.131-25.862,0l-51.719-51.719c-7.129-7.145-7.129-18.712,0-25.857l19.397-19.397
				c7.144-7.126,18.707-7.128,25.853-0.005l51.723,51.728c3.43,3.428,5.357,8.079,5.357,12.929
				C231.629,334.579,229.702,339.229,226.272,342.658z M284.464,284.47l-0.004,0.004l-19.397,19.393
				c-7.144,7.131-18.713,7.131-25.857,0l-51.719-51.719c-3.431-3.429-5.358-8.081-5.357-12.932c0.001-4.851,1.93-9.502,5.362-12.93
				l19.388-19.393c7.235-6.914,18.629-6.912,25.862,0.005l51.719,51.714C291.584,265.759,291.586,277.321,284.464,284.47z
				 M420.223,148.707L420.223,148.707l-96.973,96.978c-7.147,7.123-18.708,7.125-25.857,0.004l-51.723-51.728
				c-3.43-3.428-5.357-8.079-5.357-12.929c0-4.849,1.927-9.5,5.357-12.929l96.973-96.973c7.146-7.132,18.716-7.132,25.862,0
				l51.719,51.719c3.43,3.428,5.357,8.079,5.357,12.929C425.58,140.628,423.653,145.279,420.223,148.707z"/>
			<polygon points="84.043,355.582 135.764,407.312 155.165,387.911 155.174,387.902 103.444,336.19 			"/>
		</g>
	</g>
</g>
<g>
</g>
<g>
</g>
<g>
</g>
<g>
</g>
<g>
</g>
<g>
</g>
<g>
</g>
<g>
</g>
<g>
</g>
<g>
</g>
<g>
</g>
<g>
</g>
<g>
</g>
<g>
</g>
<g>
</g>
</svg>
